<mxfile host="app.diagrams.net" modified="2024-01-30T17:09:56.584Z" agent="Mozilla/5.0 (Windows NT 10.0; Win64; x64; rv:122.0) Gecko/20100101 Firefox/122.0" etag="yRM7klEBG8aRtGNQgUYd" version="23.0.2" type="device">
  <diagram name="Página-1" id="9Cd_RJLeHYbFE1E5Aopb">
    <mxGraphModel dx="1687" dy="878" grid="1" gridSize="10" guides="1" tooltips="1" connect="1" arrows="1" fold="1" page="1" pageScale="1" pageWidth="827" pageHeight="1169" math="0" shadow="0">
      <root>
        <mxCell id="0" />
        <mxCell id="1" parent="0" />
        <mxCell id="86nlOH5YFRba5CuwzKjF-4" value="" style="rounded=0;whiteSpace=wrap;html=1;fillColor=none;" vertex="1" parent="1">
          <mxGeometry x="90" y="170" width="1540" height="530" as="geometry" />
        </mxCell>
        <mxCell id="86nlOH5YFRba5CuwzKjF-2" value="" style="ellipse;html=1;shape=startState;fillColor=#000000;strokeColor=#2B0000;" vertex="1" parent="1">
          <mxGeometry x="245" y="100" width="30" height="30" as="geometry" />
        </mxCell>
        <mxCell id="86nlOH5YFRba5CuwzKjF-3" value="" style="edgeStyle=orthogonalEdgeStyle;html=1;verticalAlign=bottom;endArrow=open;endSize=8;strokeColor=#000000;rounded=0;" edge="1" source="86nlOH5YFRba5CuwzKjF-2" parent="1" target="86nlOH5YFRba5CuwzKjF-5">
          <mxGeometry relative="1" as="geometry">
            <mxPoint x="260" y="200" as="targetPoint" />
          </mxGeometry>
        </mxCell>
        <mxCell id="86nlOH5YFRba5CuwzKjF-7" style="edgeStyle=orthogonalEdgeStyle;rounded=0;orthogonalLoop=1;jettySize=auto;html=1;" edge="1" parent="1" source="86nlOH5YFRba5CuwzKjF-5" target="86nlOH5YFRba5CuwzKjF-6">
          <mxGeometry relative="1" as="geometry" />
        </mxCell>
        <mxCell id="86nlOH5YFRba5CuwzKjF-12" style="edgeStyle=orthogonalEdgeStyle;rounded=0;orthogonalLoop=1;jettySize=auto;html=1;" edge="1" parent="1" source="86nlOH5YFRba5CuwzKjF-5" target="86nlOH5YFRba5CuwzKjF-11">
          <mxGeometry relative="1" as="geometry" />
        </mxCell>
        <mxCell id="86nlOH5YFRba5CuwzKjF-5" value="nomeIndicador nulo ou vazio?" style="rhombus;whiteSpace=wrap;html=1;" vertex="1" parent="1">
          <mxGeometry x="145" y="240" width="230" height="80" as="geometry" />
        </mxCell>
        <mxCell id="86nlOH5YFRba5CuwzKjF-28" style="edgeStyle=orthogonalEdgeStyle;rounded=0;orthogonalLoop=1;jettySize=auto;html=1;" edge="1" parent="1" source="86nlOH5YFRba5CuwzKjF-6" target="86nlOH5YFRba5CuwzKjF-15">
          <mxGeometry relative="1" as="geometry" />
        </mxCell>
        <mxCell id="86nlOH5YFRba5CuwzKjF-6" value="Lança exceção argumento nulo" style="rounded=1;whiteSpace=wrap;html=1;" vertex="1" parent="1">
          <mxGeometry x="460" y="250" width="120" height="60" as="geometry" />
        </mxCell>
        <mxCell id="86nlOH5YFRba5CuwzKjF-8" value="Não" style="text;html=1;strokeColor=none;fillColor=none;align=center;verticalAlign=middle;whiteSpace=wrap;rounded=0;" vertex="1" parent="1">
          <mxGeometry x="387" y="380" width="60" height="30" as="geometry" />
        </mxCell>
        <mxCell id="86nlOH5YFRba5CuwzKjF-9" value="Não" style="text;html=1;strokeColor=none;fillColor=none;align=center;verticalAlign=middle;whiteSpace=wrap;rounded=0;" vertex="1" parent="1">
          <mxGeometry x="200" y="320" width="50" height="30" as="geometry" />
        </mxCell>
        <mxCell id="86nlOH5YFRba5CuwzKjF-17" style="edgeStyle=orthogonalEdgeStyle;rounded=0;orthogonalLoop=1;jettySize=auto;html=1;" edge="1" parent="1" source="86nlOH5YFRba5CuwzKjF-11" target="86nlOH5YFRba5CuwzKjF-13">
          <mxGeometry relative="1" as="geometry" />
        </mxCell>
        <mxCell id="86nlOH5YFRba5CuwzKjF-21" style="edgeStyle=orthogonalEdgeStyle;rounded=0;orthogonalLoop=1;jettySize=auto;html=1;" edge="1" parent="1" source="86nlOH5YFRba5CuwzKjF-11" target="86nlOH5YFRba5CuwzKjF-19">
          <mxGeometry relative="1" as="geometry" />
        </mxCell>
        <mxCell id="86nlOH5YFRba5CuwzKjF-11" value="&lt;div&gt;Usuário Autenticado?&lt;/div&gt;&lt;div&gt;(HttpContext)&lt;br&gt;&lt;/div&gt;" style="rhombus;whiteSpace=wrap;html=1;" vertex="1" parent="1">
          <mxGeometry x="145" y="370" width="230" height="80" as="geometry" />
        </mxCell>
        <mxCell id="86nlOH5YFRba5CuwzKjF-16" style="edgeStyle=orthogonalEdgeStyle;rounded=0;orthogonalLoop=1;jettySize=auto;html=1;" edge="1" parent="1" source="86nlOH5YFRba5CuwzKjF-13" target="86nlOH5YFRba5CuwzKjF-15">
          <mxGeometry relative="1" as="geometry" />
        </mxCell>
        <mxCell id="86nlOH5YFRba5CuwzKjF-13" value="Retorna View Acesso Proibido" style="rounded=1;whiteSpace=wrap;html=1;" vertex="1" parent="1">
          <mxGeometry x="460" y="380" width="120" height="60" as="geometry" />
        </mxCell>
        <mxCell id="86nlOH5YFRba5CuwzKjF-15" value="" style="ellipse;html=1;shape=endState;fillColor=#000000;strokeColor=#000000;" vertex="1" parent="1">
          <mxGeometry x="626" y="105" width="30" height="30" as="geometry" />
        </mxCell>
        <mxCell id="86nlOH5YFRba5CuwzKjF-18" value="Sim" style="text;html=1;strokeColor=none;fillColor=none;align=center;verticalAlign=middle;whiteSpace=wrap;rounded=0;" vertex="1" parent="1">
          <mxGeometry x="385" y="250" width="60" height="30" as="geometry" />
        </mxCell>
        <mxCell id="86nlOH5YFRba5CuwzKjF-22" style="edgeStyle=orthogonalEdgeStyle;rounded=0;orthogonalLoop=1;jettySize=auto;html=1;" edge="1" parent="1" source="86nlOH5YFRba5CuwzKjF-19" target="86nlOH5YFRba5CuwzKjF-20">
          <mxGeometry relative="1" as="geometry" />
        </mxCell>
        <mxCell id="86nlOH5YFRba5CuwzKjF-19" value="ViewbagizarUsuario" style="rounded=1;whiteSpace=wrap;html=1;" vertex="1" parent="1">
          <mxGeometry x="200" y="490" width="120" height="60" as="geometry" />
        </mxCell>
        <mxCell id="86nlOH5YFRba5CuwzKjF-24" style="edgeStyle=orthogonalEdgeStyle;rounded=0;orthogonalLoop=1;jettySize=auto;html=1;" edge="1" parent="1" source="86nlOH5YFRba5CuwzKjF-20" target="86nlOH5YFRba5CuwzKjF-23">
          <mxGeometry relative="1" as="geometry" />
        </mxCell>
        <mxCell id="86nlOH5YFRba5CuwzKjF-20" value="Indicadores Financeiros são puxados do Banco" style="rounded=1;whiteSpace=wrap;html=1;" vertex="1" parent="1">
          <mxGeometry x="105" y="600" width="310" height="60" as="geometry" />
        </mxCell>
        <mxCell id="86nlOH5YFRba5CuwzKjF-26" style="edgeStyle=orthogonalEdgeStyle;rounded=0;orthogonalLoop=1;jettySize=auto;html=1;" edge="1" parent="1" source="86nlOH5YFRba5CuwzKjF-23" target="86nlOH5YFRba5CuwzKjF-25">
          <mxGeometry relative="1" as="geometry" />
        </mxCell>
        <mxCell id="86nlOH5YFRba5CuwzKjF-23" value="Valores de Despesas são atribuidos" style="rounded=1;whiteSpace=wrap;html=1;" vertex="1" parent="1">
          <mxGeometry x="515" y="600" width="120" height="60" as="geometry" />
        </mxCell>
        <mxCell id="86nlOH5YFRba5CuwzKjF-32" style="edgeStyle=orthogonalEdgeStyle;rounded=0;orthogonalLoop=1;jettySize=auto;html=1;" edge="1" parent="1" source="86nlOH5YFRba5CuwzKjF-25" target="86nlOH5YFRba5CuwzKjF-29">
          <mxGeometry relative="1" as="geometry" />
        </mxCell>
        <mxCell id="86nlOH5YFRba5CuwzKjF-33" style="edgeStyle=orthogonalEdgeStyle;rounded=0;orthogonalLoop=1;jettySize=auto;html=1;" edge="1" parent="1" source="86nlOH5YFRba5CuwzKjF-25" target="86nlOH5YFRba5CuwzKjF-31">
          <mxGeometry relative="1" as="geometry" />
        </mxCell>
        <mxCell id="86nlOH5YFRba5CuwzKjF-25" value="_prospeccoes está com quantidade 0?" style="rhombus;whiteSpace=wrap;html=1;" vertex="1" parent="1">
          <mxGeometry x="700" y="590" width="270" height="80" as="geometry" />
        </mxCell>
        <mxCell id="86nlOH5YFRba5CuwzKjF-27" value="Sim" style="text;html=1;strokeColor=none;fillColor=none;align=center;verticalAlign=middle;whiteSpace=wrap;rounded=0;" vertex="1" parent="1">
          <mxGeometry x="740" y="560" width="60" height="30" as="geometry" />
        </mxCell>
        <mxCell id="86nlOH5YFRba5CuwzKjF-36" style="edgeStyle=orthogonalEdgeStyle;rounded=0;orthogonalLoop=1;jettySize=auto;html=1;" edge="1" parent="1" source="86nlOH5YFRba5CuwzKjF-29" target="86nlOH5YFRba5CuwzKjF-35">
          <mxGeometry relative="1" as="geometry" />
        </mxCell>
        <mxCell id="86nlOH5YFRba5CuwzKjF-29" value="Obtém-se as participações totais de todos os usuários do Administrador de Dados" style="rounded=1;whiteSpace=wrap;html=1;" vertex="1" parent="1">
          <mxGeometry x="1100" y="600" width="200" height="60" as="geometry" />
        </mxCell>
        <mxCell id="86nlOH5YFRba5CuwzKjF-30" value="Não" style="text;html=1;strokeColor=none;fillColor=none;align=center;verticalAlign=middle;whiteSpace=wrap;rounded=0;" vertex="1" parent="1">
          <mxGeometry x="960" y="585" width="60" height="30" as="geometry" />
        </mxCell>
        <mxCell id="86nlOH5YFRba5CuwzKjF-34" style="edgeStyle=orthogonalEdgeStyle;rounded=0;orthogonalLoop=1;jettySize=auto;html=1;" edge="1" parent="1" source="86nlOH5YFRba5CuwzKjF-31" target="86nlOH5YFRba5CuwzKjF-29">
          <mxGeometry relative="1" as="geometry" />
        </mxCell>
        <mxCell id="86nlOH5YFRba5CuwzKjF-31" value="Obtém-se as prospecções do administrador de dados" style="rounded=1;whiteSpace=wrap;html=1;" vertex="1" parent="1">
          <mxGeometry x="775" y="490" width="120" height="60" as="geometry" />
        </mxCell>
        <mxCell id="86nlOH5YFRba5CuwzKjF-38" style="edgeStyle=orthogonalEdgeStyle;rounded=0;orthogonalLoop=1;jettySize=auto;html=1;" edge="1" parent="1" source="86nlOH5YFRba5CuwzKjF-35" target="86nlOH5YFRba5CuwzKjF-37">
          <mxGeometry relative="1" as="geometry" />
        </mxCell>
        <mxCell id="86nlOH5YFRba5CuwzKjF-35" value="Participações totais são rankeadas" style="rounded=1;whiteSpace=wrap;html=1;" vertex="1" parent="1">
          <mxGeometry x="1410" y="600" width="120" height="60" as="geometry" />
        </mxCell>
        <mxCell id="86nlOH5YFRba5CuwzKjF-45" style="edgeStyle=orthogonalEdgeStyle;rounded=0;orthogonalLoop=1;jettySize=auto;html=1;" edge="1" parent="1" source="86nlOH5YFRba5CuwzKjF-37" target="86nlOH5YFRba5CuwzKjF-40">
          <mxGeometry relative="1" as="geometry" />
        </mxCell>
        <mxCell id="86nlOH5YFRba5CuwzKjF-37" value="Itera-se sobre as participações" style="rounded=1;whiteSpace=wrap;html=1;" vertex="1" parent="1">
          <mxGeometry x="1410" y="470" width="120" height="60" as="geometry" />
        </mxCell>
        <mxCell id="86nlOH5YFRba5CuwzKjF-44" style="edgeStyle=orthogonalEdgeStyle;rounded=0;orthogonalLoop=1;jettySize=auto;html=1;" edge="1" parent="1" source="86nlOH5YFRba5CuwzKjF-40" target="86nlOH5YFRba5CuwzKjF-41">
          <mxGeometry relative="1" as="geometry" />
        </mxCell>
        <mxCell id="86nlOH5YFRba5CuwzKjF-40" value="Obtem-se o valor do indicador, o rank e o pesquisador a cada iteração" style="rounded=1;whiteSpace=wrap;html=1;" vertex="1" parent="1">
          <mxGeometry x="1410" y="380" width="120" height="60" as="geometry" />
        </mxCell>
        <mxCell id="86nlOH5YFRba5CuwzKjF-43" style="edgeStyle=orthogonalEdgeStyle;rounded=0;orthogonalLoop=1;jettySize=auto;html=1;" edge="1" parent="1" source="86nlOH5YFRba5CuwzKjF-41" target="86nlOH5YFRba5CuwzKjF-42">
          <mxGeometry relative="1" as="geometry" />
        </mxCell>
        <mxCell id="86nlOH5YFRba5CuwzKjF-41" value="O objeto IndicadorResultadoViewModel é montado e adicionado a lista" style="rounded=1;whiteSpace=wrap;html=1;" vertex="1" parent="1">
          <mxGeometry x="1365" y="290" width="210" height="60" as="geometry" />
        </mxCell>
        <mxCell id="86nlOH5YFRba5CuwzKjF-46" style="edgeStyle=orthogonalEdgeStyle;rounded=0;orthogonalLoop=1;jettySize=auto;html=1;entryX=1;entryY=0.5;entryDx=0;entryDy=0;" edge="1" parent="1" source="86nlOH5YFRba5CuwzKjF-42" target="86nlOH5YFRba5CuwzKjF-15">
          <mxGeometry relative="1" as="geometry">
            <Array as="points">
              <mxPoint x="1470" y="120" />
            </Array>
          </mxGeometry>
        </mxCell>
        <mxCell id="86nlOH5YFRba5CuwzKjF-42" value="A lista é finalizada, serializada e retornada como string JSON" style="rounded=1;whiteSpace=wrap;html=1;" vertex="1" parent="1">
          <mxGeometry x="1410" y="200" width="120" height="60" as="geometry" />
        </mxCell>
      </root>
    </mxGraphModel>
  </diagram>
</mxfile>
